<mxfile host="Electron" agent="Mozilla/5.0 (Windows NT 10.0; Win64; x64) AppleWebKit/537.36 (KHTML, like Gecko) draw.io/26.2.2 Chrome/134.0.6998.178 Electron/35.1.2 Safari/537.36" version="26.2.2">
  <diagram name="Page-1" id="KzbWKn2N51EeBrLUCvT3">
    <mxGraphModel dx="1820" dy="1575" grid="1" gridSize="10" guides="1" tooltips="1" connect="1" arrows="1" fold="1" page="1" pageScale="1" pageWidth="850" pageHeight="1100" math="0" shadow="0">
      <root>
        <mxCell id="0" />
        <mxCell id="1" parent="0" />
        <mxCell id="bpd0lABQ1JNKTF32KI5C-1" value="Gameplay" style="whiteSpace=wrap;strokeWidth=2;verticalAlign=top;" vertex="1" parent="1">
          <mxGeometry x="20" y="20" width="1192" height="2751" as="geometry" />
        </mxCell>
        <mxCell id="bpd0lABQ1JNKTF32KI5C-2" value="Player Touches Block" style="whiteSpace=wrap;strokeWidth=2;" vertex="1" parent="bpd0lABQ1JNKTF32KI5C-1">
          <mxGeometry x="613" y="46" width="209" height="54" as="geometry" />
        </mxCell>
        <mxCell id="bpd0lABQ1JNKTF32KI5C-3" value="Start Selection" style="whiteSpace=wrap;strokeWidth=2;" vertex="1" parent="bpd0lABQ1JNKTF32KI5C-1">
          <mxGeometry x="635" y="175" width="166" height="54" as="geometry" />
        </mxCell>
        <mxCell id="bpd0lABQ1JNKTF32KI5C-4" value="Player Drags to Next Block" style="whiteSpace=wrap;strokeWidth=2;" vertex="1" parent="bpd0lABQ1JNKTF32KI5C-1">
          <mxGeometry x="593" y="304" width="250" height="54" as="geometry" />
        </mxCell>
        <mxCell id="bpd0lABQ1JNKTF32KI5C-5" value="Is Block Already Selected?" style="rhombus;strokeWidth=2;whiteSpace=wrap;" vertex="1" parent="bpd0lABQ1JNKTF32KI5C-1">
          <mxGeometry x="99" y="433" width="239" height="239" as="geometry" />
        </mxCell>
        <mxCell id="bpd0lABQ1JNKTF32KI5C-6" value="Skip Block" style="whiteSpace=wrap;strokeWidth=2;" vertex="1" parent="bpd0lABQ1JNKTF32KI5C-1">
          <mxGeometry x="70" y="1729" width="132" height="54" as="geometry" />
        </mxCell>
        <mxCell id="bpd0lABQ1JNKTF32KI5C-7" value="Are Blocks Adjacent?" style="rhombus;strokeWidth=2;whiteSpace=wrap;" vertex="1" parent="bpd0lABQ1JNKTF32KI5C-1">
          <mxGeometry x="254" y="775" width="202" height="202" as="geometry" />
        </mxCell>
        <mxCell id="bpd0lABQ1JNKTF32KI5C-8" value="First Two Blocks?" style="rhombus;strokeWidth=2;whiteSpace=wrap;" vertex="1" parent="bpd0lABQ1JNKTF32KI5C-1">
          <mxGeometry x="344" y="1081" width="174" height="174" as="geometry" />
        </mxCell>
        <mxCell id="bpd0lABQ1JNKTF32KI5C-9" value="Same Value?" style="rhombus;strokeWidth=2;whiteSpace=wrap;" vertex="1" parent="bpd0lABQ1JNKTF32KI5C-1">
          <mxGeometry x="230" y="1421" width="142" height="142" as="geometry" />
        </mxCell>
        <mxCell id="bpd0lABQ1JNKTF32KI5C-10" value="Same Value or One Level Higher?" style="rhombus;strokeWidth=2;whiteSpace=wrap;" vertex="1" parent="bpd0lABQ1JNKTF32KI5C-1">
          <mxGeometry x="422" y="1353" width="278" height="278" as="geometry" />
        </mxCell>
        <mxCell id="bpd0lABQ1JNKTF32KI5C-11" value="Add Block to Selection" style="whiteSpace=wrap;strokeWidth=2;" vertex="1" parent="bpd0lABQ1JNKTF32KI5C-1">
          <mxGeometry x="428" y="1729" width="221" height="54" as="geometry" />
        </mxCell>
        <mxCell id="bpd0lABQ1JNKTF32KI5C-12" value="Update UI" style="whiteSpace=wrap;strokeWidth=2;" vertex="1" parent="bpd0lABQ1JNKTF32KI5C-1">
          <mxGeometry x="475" y="1858" width="131" height="54" as="geometry" />
        </mxCell>
        <mxCell id="bpd0lABQ1JNKTF32KI5C-13" value="Player Releases" style="whiteSpace=wrap;strokeWidth=2;" vertex="1" parent="bpd0lABQ1JNKTF32KI5C-1">
          <mxGeometry x="659" y="525" width="171" height="54" as="geometry" />
        </mxCell>
        <mxCell id="bpd0lABQ1JNKTF32KI5C-14" value="Valid Merge? 2+ blocks" style="rhombus;strokeWidth=2;whiteSpace=wrap;" vertex="1" parent="bpd0lABQ1JNKTF32KI5C-1">
          <mxGeometry x="637" y="769" width="214" height="214" as="geometry" />
        </mxCell>
        <mxCell id="bpd0lABQ1JNKTF32KI5C-15" value="Reset Selection" style="whiteSpace=wrap;strokeWidth=2;" vertex="1" parent="bpd0lABQ1JNKTF32KI5C-1">
          <mxGeometry x="591" y="1141" width="170" height="54" as="geometry" />
        </mxCell>
        <mxCell id="bpd0lABQ1JNKTF32KI5C-16" value="Store Previous State for Undo" style="whiteSpace=wrap;strokeWidth=2;" vertex="1" parent="bpd0lABQ1JNKTF32KI5C-1">
          <mxGeometry x="811" y="1129" width="260" height="78" as="geometry" />
        </mxCell>
        <mxCell id="bpd0lABQ1JNKTF32KI5C-17" value="Animate Merge" style="whiteSpace=wrap;strokeWidth=2;" vertex="1" parent="bpd0lABQ1JNKTF32KI5C-1">
          <mxGeometry x="857" y="1465" width="167" height="54" as="geometry" />
        </mxCell>
        <mxCell id="bpd0lABQ1JNKTF32KI5C-18" value="Update Score" style="whiteSpace=wrap;strokeWidth=2;" vertex="1" parent="bpd0lABQ1JNKTF32KI5C-1">
          <mxGeometry x="863" y="1729" width="156" height="54" as="geometry" />
        </mxCell>
        <mxCell id="bpd0lABQ1JNKTF32KI5C-19" value="Fill Empty Spaces" style="whiteSpace=wrap;strokeWidth=2;" vertex="1" parent="bpd0lABQ1JNKTF32KI5C-1">
          <mxGeometry x="916" y="1858" width="185" height="54" as="geometry" />
        </mxCell>
        <mxCell id="bpd0lABQ1JNKTF32KI5C-20" value="Level Up Condition?" style="rhombus;strokeWidth=2;whiteSpace=wrap;" vertex="1" parent="bpd0lABQ1JNKTF32KI5C-1">
          <mxGeometry x="911" y="1987" width="196" height="196" as="geometry" />
        </mxCell>
        <mxCell id="bpd0lABQ1JNKTF32KI5C-21" value="Level Up Animation" style="whiteSpace=wrap;strokeWidth=2;" vertex="1" parent="bpd0lABQ1JNKTF32KI5C-1">
          <mxGeometry x="456" y="2280" width="199" height="54" as="geometry" />
        </mxCell>
        <mxCell id="bpd0lABQ1JNKTF32KI5C-22" value="Update Available Values" style="whiteSpace=wrap;strokeWidth=2;" vertex="1" parent="bpd0lABQ1JNKTF32KI5C-1">
          <mxGeometry x="440" y="2409" width="231" height="54" as="geometry" />
        </mxCell>
        <mxCell id="bpd0lABQ1JNKTF32KI5C-23" value="Update UI" style="whiteSpace=wrap;strokeWidth=2;" vertex="1" parent="bpd0lABQ1JNKTF32KI5C-1">
          <mxGeometry x="490" y="2538" width="131" height="54" as="geometry" />
        </mxCell>
        <mxCell id="bpd0lABQ1JNKTF32KI5C-24" value="Save Game State" style="whiteSpace=wrap;strokeWidth=2;" vertex="1" parent="bpd0lABQ1JNKTF32KI5C-1">
          <mxGeometry x="918" y="2667" width="181" height="54" as="geometry" />
        </mxCell>
        <mxCell id="bpd0lABQ1JNKTF32KI5C-25" value="" style="curved=1;startArrow=none;endArrow=block;exitX=0.5;exitY=0.99;entryX=0.5;entryY=-0.01;rounded=0;" edge="1" parent="bpd0lABQ1JNKTF32KI5C-1" source="bpd0lABQ1JNKTF32KI5C-2" target="bpd0lABQ1JNKTF32KI5C-3">
          <mxGeometry relative="1" as="geometry">
            <Array as="points" />
          </mxGeometry>
        </mxCell>
        <mxCell id="bpd0lABQ1JNKTF32KI5C-26" value="" style="curved=1;startArrow=none;endArrow=block;exitX=0.5;exitY=0.99;entryX=0.5;entryY=-0.01;rounded=0;" edge="1" parent="bpd0lABQ1JNKTF32KI5C-1" source="bpd0lABQ1JNKTF32KI5C-3" target="bpd0lABQ1JNKTF32KI5C-4">
          <mxGeometry relative="1" as="geometry">
            <Array as="points" />
          </mxGeometry>
        </mxCell>
        <mxCell id="bpd0lABQ1JNKTF32KI5C-27" value="" style="curved=1;startArrow=none;endArrow=block;exitX=0;exitY=0.79;entryX=0.5;entryY=0;rounded=0;" edge="1" parent="bpd0lABQ1JNKTF32KI5C-1" source="bpd0lABQ1JNKTF32KI5C-4" target="bpd0lABQ1JNKTF32KI5C-5">
          <mxGeometry relative="1" as="geometry">
            <Array as="points">
              <mxPoint x="219" y="395" />
            </Array>
          </mxGeometry>
        </mxCell>
        <mxCell id="bpd0lABQ1JNKTF32KI5C-28" value="Yes" style="curved=1;startArrow=none;endArrow=block;exitX=0.16;exitY=1;entryX=0.41;entryY=-0.01;rounded=0;" edge="1" parent="bpd0lABQ1JNKTF32KI5C-1" source="bpd0lABQ1JNKTF32KI5C-5" target="bpd0lABQ1JNKTF32KI5C-6">
          <mxGeometry relative="1" as="geometry">
            <Array as="points">
              <mxPoint x="102" y="720" />
              <mxPoint x="102" y="1680" />
            </Array>
          </mxGeometry>
        </mxCell>
        <mxCell id="bpd0lABQ1JNKTF32KI5C-29" value="No" style="curved=1;startArrow=none;endArrow=block;exitX=0.9;exitY=1;entryX=0.5;entryY=0;rounded=0;" edge="1" parent="bpd0lABQ1JNKTF32KI5C-1" source="bpd0lABQ1JNKTF32KI5C-5" target="bpd0lABQ1JNKTF32KI5C-7">
          <mxGeometry relative="1" as="geometry">
            <Array as="points">
              <mxPoint x="355" y="720" />
            </Array>
          </mxGeometry>
        </mxCell>
        <mxCell id="bpd0lABQ1JNKTF32KI5C-30" value="No" style="curved=1;startArrow=none;endArrow=block;exitX=0;exitY=0.97;entryX=0.64;entryY=-0.01;rounded=0;" edge="1" parent="bpd0lABQ1JNKTF32KI5C-1" source="bpd0lABQ1JNKTF32KI5C-7" target="bpd0lABQ1JNKTF32KI5C-6">
          <mxGeometry relative="1" as="geometry">
            <Array as="points">
              <mxPoint x="187" y="1032" />
              <mxPoint x="187" y="1680" />
            </Array>
          </mxGeometry>
        </mxCell>
        <mxCell id="bpd0lABQ1JNKTF32KI5C-31" value="Yes" style="curved=1;startArrow=none;endArrow=block;exitX=0.74;exitY=1;entryX=0.5;entryY=0;rounded=0;" edge="1" parent="bpd0lABQ1JNKTF32KI5C-1" source="bpd0lABQ1JNKTF32KI5C-7" target="bpd0lABQ1JNKTF32KI5C-8">
          <mxGeometry relative="1" as="geometry">
            <Array as="points">
              <mxPoint x="431" y="1032" />
            </Array>
          </mxGeometry>
        </mxCell>
        <mxCell id="bpd0lABQ1JNKTF32KI5C-32" value="Yes" style="curved=1;startArrow=none;endArrow=block;exitX=0.02;exitY=1;entryX=0.5;entryY=0;rounded=0;" edge="1" parent="bpd0lABQ1JNKTF32KI5C-1" source="bpd0lABQ1JNKTF32KI5C-8" target="bpd0lABQ1JNKTF32KI5C-9">
          <mxGeometry relative="1" as="geometry">
            <Array as="points">
              <mxPoint x="301" y="1304" />
            </Array>
          </mxGeometry>
        </mxCell>
        <mxCell id="bpd0lABQ1JNKTF32KI5C-33" value="No" style="curved=1;startArrow=none;endArrow=block;exitX=0.98;exitY=1;entryX=0.5;entryY=0;rounded=0;" edge="1" parent="bpd0lABQ1JNKTF32KI5C-1" source="bpd0lABQ1JNKTF32KI5C-8" target="bpd0lABQ1JNKTF32KI5C-10">
          <mxGeometry relative="1" as="geometry">
            <Array as="points">
              <mxPoint x="561" y="1304" />
            </Array>
          </mxGeometry>
        </mxCell>
        <mxCell id="bpd0lABQ1JNKTF32KI5C-34" value="No" style="curved=1;startArrow=none;endArrow=block;exitX=0.4;exitY=1;entryX=0.85;entryY=-0.01;rounded=0;" edge="1" parent="bpd0lABQ1JNKTF32KI5C-1" source="bpd0lABQ1JNKTF32KI5C-9" target="bpd0lABQ1JNKTF32KI5C-6">
          <mxGeometry relative="1" as="geometry">
            <Array as="points">
              <mxPoint x="265" y="1680" />
            </Array>
          </mxGeometry>
        </mxCell>
        <mxCell id="bpd0lABQ1JNKTF32KI5C-35" value="Yes" style="curved=1;startArrow=none;endArrow=block;exitX=0.78;exitY=1;entryX=0.29;entryY=-0.01;rounded=0;" edge="1" parent="bpd0lABQ1JNKTF32KI5C-1" source="bpd0lABQ1JNKTF32KI5C-9" target="bpd0lABQ1JNKTF32KI5C-11">
          <mxGeometry relative="1" as="geometry">
            <Array as="points">
              <mxPoint x="408" y="1680" />
            </Array>
          </mxGeometry>
        </mxCell>
        <mxCell id="bpd0lABQ1JNKTF32KI5C-36" value="No" style="curved=1;startArrow=none;endArrow=block;exitX=0.21;exitY=1;entryX=1;entryY=0.2;rounded=0;" edge="1" parent="bpd0lABQ1JNKTF32KI5C-1" source="bpd0lABQ1JNKTF32KI5C-10" target="bpd0lABQ1JNKTF32KI5C-6">
          <mxGeometry relative="1" as="geometry">
            <Array as="points">
              <mxPoint x="454" y="1680" />
            </Array>
          </mxGeometry>
        </mxCell>
        <mxCell id="bpd0lABQ1JNKTF32KI5C-37" value="Yes" style="curved=1;startArrow=none;endArrow=block;exitX=0.82;exitY=1;entryX=0.73;entryY=-0.01;rounded=0;" edge="1" parent="bpd0lABQ1JNKTF32KI5C-1" source="bpd0lABQ1JNKTF32KI5C-10" target="bpd0lABQ1JNKTF32KI5C-11">
          <mxGeometry relative="1" as="geometry">
            <Array as="points">
              <mxPoint x="680" y="1680" />
            </Array>
          </mxGeometry>
        </mxCell>
        <mxCell id="bpd0lABQ1JNKTF32KI5C-38" value="" style="curved=1;startArrow=none;endArrow=block;exitX=0.5;exitY=0.99;entryX=0;entryY=0.3;rounded=0;" edge="1" parent="bpd0lABQ1JNKTF32KI5C-1" source="bpd0lABQ1JNKTF32KI5C-6" target="bpd0lABQ1JNKTF32KI5C-12">
          <mxGeometry relative="1" as="geometry">
            <Array as="points">
              <mxPoint x="136" y="1820" />
            </Array>
          </mxGeometry>
        </mxCell>
        <mxCell id="bpd0lABQ1JNKTF32KI5C-39" value="" style="curved=1;startArrow=none;endArrow=block;exitX=0.5;exitY=0.99;entryX=0.49;entryY=-0.01;rounded=0;" edge="1" parent="bpd0lABQ1JNKTF32KI5C-1" source="bpd0lABQ1JNKTF32KI5C-11" target="bpd0lABQ1JNKTF32KI5C-12">
          <mxGeometry relative="1" as="geometry">
            <Array as="points">
              <mxPoint x="538" y="1820" />
            </Array>
          </mxGeometry>
        </mxCell>
        <mxCell id="bpd0lABQ1JNKTF32KI5C-40" value="" style="curved=1;startArrow=none;endArrow=block;exitX=1;exitY=0.35;entryX=1;entryY=0.87;rounded=0;" edge="1" parent="bpd0lABQ1JNKTF32KI5C-1" source="bpd0lABQ1JNKTF32KI5C-12" target="bpd0lABQ1JNKTF32KI5C-4">
          <mxGeometry relative="1" as="geometry">
            <Array as="points">
              <mxPoint x="1110" y="1820" />
              <mxPoint x="1110" y="395" />
            </Array>
          </mxGeometry>
        </mxCell>
        <mxCell id="bpd0lABQ1JNKTF32KI5C-41" value="" style="curved=1;startArrow=none;endArrow=block;exitX=0.54;exitY=0.99;entryX=0.5;entryY=0;rounded=0;" edge="1" parent="bpd0lABQ1JNKTF32KI5C-1" source="bpd0lABQ1JNKTF32KI5C-4" target="bpd0lABQ1JNKTF32KI5C-13">
          <mxGeometry relative="1" as="geometry">
            <Array as="points">
              <mxPoint x="744" y="395" />
            </Array>
          </mxGeometry>
        </mxCell>
        <mxCell id="bpd0lABQ1JNKTF32KI5C-42" value="" style="curved=1;startArrow=none;endArrow=block;exitX=0.5;exitY=1;entryX=0.5;entryY=0;rounded=0;" edge="1" parent="bpd0lABQ1JNKTF32KI5C-1" source="bpd0lABQ1JNKTF32KI5C-13" target="bpd0lABQ1JNKTF32KI5C-14">
          <mxGeometry relative="1" as="geometry">
            <Array as="points" />
          </mxGeometry>
        </mxCell>
        <mxCell id="bpd0lABQ1JNKTF32KI5C-43" value="No" style="curved=1;startArrow=none;endArrow=block;exitX=0.28;exitY=1;entryX=0.5;entryY=0;rounded=0;" edge="1" parent="bpd0lABQ1JNKTF32KI5C-1" source="bpd0lABQ1JNKTF32KI5C-14" target="bpd0lABQ1JNKTF32KI5C-15">
          <mxGeometry relative="1" as="geometry">
            <Array as="points">
              <mxPoint x="676" y="1032" />
            </Array>
          </mxGeometry>
        </mxCell>
        <mxCell id="bpd0lABQ1JNKTF32KI5C-44" value="Yes" style="curved=1;startArrow=none;endArrow=block;exitX=1;exitY=0.9;entryX=0.5;entryY=0;rounded=0;" edge="1" parent="bpd0lABQ1JNKTF32KI5C-1" source="bpd0lABQ1JNKTF32KI5C-14" target="bpd0lABQ1JNKTF32KI5C-16">
          <mxGeometry relative="1" as="geometry">
            <Array as="points">
              <mxPoint x="941" y="1032" />
            </Array>
          </mxGeometry>
        </mxCell>
        <mxCell id="bpd0lABQ1JNKTF32KI5C-45" value="" style="curved=1;startArrow=none;endArrow=block;exitX=0.5;exitY=1;entryX=0.5;entryY=-0.01;rounded=0;" edge="1" parent="bpd0lABQ1JNKTF32KI5C-1" source="bpd0lABQ1JNKTF32KI5C-16" target="bpd0lABQ1JNKTF32KI5C-17">
          <mxGeometry relative="1" as="geometry">
            <Array as="points" />
          </mxGeometry>
        </mxCell>
        <mxCell id="bpd0lABQ1JNKTF32KI5C-46" value="" style="curved=1;startArrow=none;endArrow=block;exitX=0.5;exitY=0.99;entryX=0.5;entryY=-0.01;rounded=0;" edge="1" parent="bpd0lABQ1JNKTF32KI5C-1" source="bpd0lABQ1JNKTF32KI5C-17" target="bpd0lABQ1JNKTF32KI5C-18">
          <mxGeometry relative="1" as="geometry">
            <Array as="points" />
          </mxGeometry>
        </mxCell>
        <mxCell id="bpd0lABQ1JNKTF32KI5C-47" value="" style="curved=1;startArrow=none;endArrow=block;exitX=0.5;exitY=0.99;entryX=0.35;entryY=-0.01;rounded=0;" edge="1" parent="bpd0lABQ1JNKTF32KI5C-1" source="bpd0lABQ1JNKTF32KI5C-18" target="bpd0lABQ1JNKTF32KI5C-19">
          <mxGeometry relative="1" as="geometry">
            <Array as="points">
              <mxPoint x="941" y="1820" />
            </Array>
          </mxGeometry>
        </mxCell>
        <mxCell id="bpd0lABQ1JNKTF32KI5C-48" value="" style="curved=1;startArrow=none;endArrow=block;exitX=0.5;exitY=0.99;entryX=0.5;entryY=0;rounded=0;" edge="1" parent="bpd0lABQ1JNKTF32KI5C-1" source="bpd0lABQ1JNKTF32KI5C-19" target="bpd0lABQ1JNKTF32KI5C-20">
          <mxGeometry relative="1" as="geometry">
            <Array as="points" />
          </mxGeometry>
        </mxCell>
        <mxCell id="bpd0lABQ1JNKTF32KI5C-49" value="Yes" style="curved=1;startArrow=none;endArrow=block;exitX=0;exitY=0.66;entryX=0.5;entryY=0;rounded=0;" edge="1" parent="bpd0lABQ1JNKTF32KI5C-1" source="bpd0lABQ1JNKTF32KI5C-20" target="bpd0lABQ1JNKTF32KI5C-21">
          <mxGeometry relative="1" as="geometry">
            <Array as="points">
              <mxPoint x="556" y="2231" />
            </Array>
          </mxGeometry>
        </mxCell>
        <mxCell id="bpd0lABQ1JNKTF32KI5C-50" value="" style="curved=1;startArrow=none;endArrow=block;exitX=0.5;exitY=1;entryX=0.5;entryY=0;rounded=0;" edge="1" parent="bpd0lABQ1JNKTF32KI5C-1" source="bpd0lABQ1JNKTF32KI5C-21" target="bpd0lABQ1JNKTF32KI5C-22">
          <mxGeometry relative="1" as="geometry">
            <Array as="points" />
          </mxGeometry>
        </mxCell>
        <mxCell id="bpd0lABQ1JNKTF32KI5C-51" value="" style="curved=1;startArrow=none;endArrow=block;exitX=0.5;exitY=1;entryX=0.5;entryY=0;rounded=0;" edge="1" parent="bpd0lABQ1JNKTF32KI5C-1" source="bpd0lABQ1JNKTF32KI5C-22" target="bpd0lABQ1JNKTF32KI5C-23">
          <mxGeometry relative="1" as="geometry">
            <Array as="points" />
          </mxGeometry>
        </mxCell>
        <mxCell id="bpd0lABQ1JNKTF32KI5C-52" value="" style="curved=1;startArrow=none;endArrow=block;exitX=0.5;exitY=1;entryX=0;entryY=0.26;rounded=0;" edge="1" parent="bpd0lABQ1JNKTF32KI5C-1" source="bpd0lABQ1JNKTF32KI5C-23" target="bpd0lABQ1JNKTF32KI5C-24">
          <mxGeometry relative="1" as="geometry">
            <Array as="points">
              <mxPoint x="556" y="2630" />
            </Array>
          </mxGeometry>
        </mxCell>
        <mxCell id="bpd0lABQ1JNKTF32KI5C-53" value="No" style="curved=1;startArrow=none;endArrow=block;exitX=0.87;exitY=1;entryX=0.75;entryY=0;rounded=0;" edge="1" parent="bpd0lABQ1JNKTF32KI5C-1" source="bpd0lABQ1JNKTF32KI5C-20" target="bpd0lABQ1JNKTF32KI5C-24">
          <mxGeometry relative="1" as="geometry">
            <Array as="points">
              <mxPoint x="1118" y="2231" />
              <mxPoint x="1118" y="2630" />
            </Array>
          </mxGeometry>
        </mxCell>
        <mxCell id="bpd0lABQ1JNKTF32KI5C-54" value="Initialization" style="whiteSpace=wrap;strokeWidth=2;verticalAlign=top;" vertex="1" parent="1">
          <mxGeometry x="1262" y="980" width="556" height="832" as="geometry" />
        </mxCell>
        <mxCell id="bpd0lABQ1JNKTF32KI5C-55" value="Document Loaded" style="whiteSpace=wrap;strokeWidth=2;" vertex="1" parent="bpd0lABQ1JNKTF32KI5C-54">
          <mxGeometry x="196" y="46" width="189" height="54" as="geometry" />
        </mxCell>
        <mxCell id="bpd0lABQ1JNKTF32KI5C-56" value="Check For Saved Game" style="rhombus;strokeWidth=2;whiteSpace=wrap;" vertex="1" parent="bpd0lABQ1JNKTF32KI5C-54">
          <mxGeometry x="182" y="175" width="218" height="218" as="geometry" />
        </mxCell>
        <mxCell id="bpd0lABQ1JNKTF32KI5C-57" value="Load Saved Game State" style="whiteSpace=wrap;strokeWidth=2;" vertex="1" parent="bpd0lABQ1JNKTF32KI5C-54">
          <mxGeometry x="43" y="490" width="229" height="54" as="geometry" />
        </mxCell>
        <mxCell id="bpd0lABQ1JNKTF32KI5C-58" value="Initialize New Game" style="whiteSpace=wrap;strokeWidth=2;" vertex="1" parent="bpd0lABQ1JNKTF32KI5C-54">
          <mxGeometry x="322" y="490" width="204" height="54" as="geometry" />
        </mxCell>
        <mxCell id="bpd0lABQ1JNKTF32KI5C-59" value="Render Game Board" style="whiteSpace=wrap;strokeWidth=2;" vertex="1" parent="bpd0lABQ1JNKTF32KI5C-54">
          <mxGeometry x="190" y="619" width="202" height="54" as="geometry" />
        </mxCell>
        <mxCell id="bpd0lABQ1JNKTF32KI5C-60" value="Setup Event Listeners" style="whiteSpace=wrap;strokeWidth=2;" vertex="1" parent="bpd0lABQ1JNKTF32KI5C-54">
          <mxGeometry x="183" y="748" width="215" height="54" as="geometry" />
        </mxCell>
        <mxCell id="bpd0lABQ1JNKTF32KI5C-61" value="" style="curved=1;startArrow=none;endArrow=block;exitX=0.5;exitY=0.99;entryX=0.5;entryY=0;rounded=0;" edge="1" parent="bpd0lABQ1JNKTF32KI5C-54" source="bpd0lABQ1JNKTF32KI5C-55" target="bpd0lABQ1JNKTF32KI5C-56">
          <mxGeometry relative="1" as="geometry">
            <Array as="points" />
          </mxGeometry>
        </mxCell>
        <mxCell id="bpd0lABQ1JNKTF32KI5C-62" value="Found" style="curved=1;startArrow=none;endArrow=block;exitX=0.08;exitY=1;entryX=0.5;entryY=0;rounded=0;" edge="1" parent="bpd0lABQ1JNKTF32KI5C-54" source="bpd0lABQ1JNKTF32KI5C-56" target="bpd0lABQ1JNKTF32KI5C-57">
          <mxGeometry relative="1" as="geometry">
            <Array as="points">
              <mxPoint x="157" y="441" />
            </Array>
          </mxGeometry>
        </mxCell>
        <mxCell id="bpd0lABQ1JNKTF32KI5C-63" value="Not Found" style="curved=1;startArrow=none;endArrow=block;exitX=0.92;exitY=1;entryX=0.5;entryY=0;rounded=0;" edge="1" parent="bpd0lABQ1JNKTF32KI5C-54" source="bpd0lABQ1JNKTF32KI5C-56" target="bpd0lABQ1JNKTF32KI5C-58">
          <mxGeometry relative="1" as="geometry">
            <Array as="points">
              <mxPoint x="424" y="441" />
            </Array>
          </mxGeometry>
        </mxCell>
        <mxCell id="bpd0lABQ1JNKTF32KI5C-64" value="" style="curved=1;startArrow=none;endArrow=block;exitX=0.5;exitY=1;entryX=0.22;entryY=0;rounded=0;" edge="1" parent="bpd0lABQ1JNKTF32KI5C-54" source="bpd0lABQ1JNKTF32KI5C-57" target="bpd0lABQ1JNKTF32KI5C-59">
          <mxGeometry relative="1" as="geometry">
            <Array as="points">
              <mxPoint x="157" y="582" />
            </Array>
          </mxGeometry>
        </mxCell>
        <mxCell id="bpd0lABQ1JNKTF32KI5C-65" value="" style="curved=1;startArrow=none;endArrow=block;exitX=0.5;exitY=1;entryX=0.77;entryY=0;rounded=0;" edge="1" parent="bpd0lABQ1JNKTF32KI5C-54" source="bpd0lABQ1JNKTF32KI5C-58" target="bpd0lABQ1JNKTF32KI5C-59">
          <mxGeometry relative="1" as="geometry">
            <Array as="points">
              <mxPoint x="424" y="582" />
            </Array>
          </mxGeometry>
        </mxCell>
        <mxCell id="bpd0lABQ1JNKTF32KI5C-66" value="" style="curved=1;startArrow=none;endArrow=block;exitX=0.5;exitY=1;entryX=0.5;entryY=0;rounded=0;" edge="1" parent="bpd0lABQ1JNKTF32KI5C-54" source="bpd0lABQ1JNKTF32KI5C-59" target="bpd0lABQ1JNKTF32KI5C-60">
          <mxGeometry relative="1" as="geometry">
            <Array as="points" />
          </mxGeometry>
        </mxCell>
      </root>
    </mxGraphModel>
  </diagram>
</mxfile>
